<svg width="176" height="32" viewBox="0 0 176 32" fill="none" xmlns="http://www.w3.org/2000/svg">
<path fill-rule="evenodd" clip-rule="evenodd" d="M0 16.0893C0 24.044 5.77733 30.6587 13.3333 32V20.444H9.33333V16H13.3333V12.444C13.3333 8.444 15.9107 6.22267 19.556 6.22267C20.7107 6.22267 21.956 6.4 23.1107 6.57733V10.6667H21.0667C19.1107 10.6667 18.6667 11.644 18.6667 12.8893V16H22.9333L22.2227 20.444H18.6667V32C26.2227 30.6587 32 24.0453 32 16.0893C32 7.24 24.8 0 16 0C7.2 0 0 7.24 0 16.0893Z" fill="#333333"/>
<path d="M64 0C55.1643 0 48 7.16429 48 16C48 24.8357 55.1643 32 64 32C72.8357 32 80 24.8357 80 16C80 7.16429 72.8357 0 64 0ZM71.6893 12.0607C71.7 12.2286 71.7 12.4036 71.7 12.575C71.7 17.8179 67.7071 23.8571 60.4107 23.8571C58.1607 23.8571 56.075 23.2036 54.3179 22.0786C54.6393 22.1143 54.9464 22.1286 55.275 22.1286C57.1321 22.1286 58.8393 21.5 60.2 20.4357C58.4571 20.4 56.9929 19.2571 56.4929 17.6857C57.1036 17.775 57.6536 17.775 58.2821 17.6143C57.3847 17.432 56.5781 16.9446 55.9993 16.2349C55.4206 15.5253 55.1053 14.6372 55.1071 13.7214V13.6714C55.6321 13.9679 56.25 14.15 56.8964 14.175C56.353 13.8128 55.9074 13.3222 55.599 12.7465C55.2906 12.1709 55.129 11.528 55.1286 10.875C55.1286 10.1357 55.3214 9.46071 55.6679 8.875C56.6639 10.1012 57.9069 11.1041 59.3159 11.8184C60.725 12.5328 62.2686 12.9427 63.8464 13.0214C63.2857 10.325 65.3 8.14286 67.7214 8.14286C68.8643 8.14286 69.8929 8.62143 70.6179 9.39286C71.5143 9.225 72.3714 8.88929 73.1357 8.43929C72.8393 9.35714 72.2179 10.1321 71.3929 10.6214C72.1929 10.5357 72.9643 10.3143 73.6786 10.0036C73.1393 10.7964 72.4643 11.5 71.6893 12.0607Z" fill="#333333"/>
<path d="M111.996 10.6645C109.058 10.6645 106.66 13.0621 106.66 16C106.66 18.9379 109.058 21.3355 111.996 21.3355C114.934 21.3355 117.331 18.9379 117.331 16C117.331 13.0621 114.934 10.6645 111.996 10.6645ZM127.998 16C127.998 13.7906 128.018 11.6011 127.894 9.39567C127.77 6.83398 127.186 4.56049 125.312 2.68726C123.435 0.810027 121.166 0.229646 118.604 0.105564C116.395 -0.0185175 114.205 0.00149573 112 0.00149573C109.79 0.00149573 107.601 -0.0185175 105.395 0.105564C102.834 0.229646 100.56 0.814029 98.687 2.68726C96.8097 4.56449 96.2293 6.83398 96.1053 9.39567C95.9812 11.6051 96.0012 13.7946 96.0012 16C96.0012 18.2055 95.9812 20.3989 96.1053 22.6043C96.2293 25.166 96.8137 27.4395 98.687 29.3128C100.564 31.19 102.834 31.7704 105.395 31.8944C107.605 32.0185 109.794 31.9985 112 31.9985C114.209 31.9985 116.399 32.0185 118.604 31.8944C121.166 31.7704 123.439 31.186 125.312 29.3128C127.19 27.4355 127.77 25.166 127.894 22.6043C128.022 20.3989 127.998 18.2095 127.998 16ZM111.996 24.2094C107.453 24.2094 103.786 20.543 103.786 16C103.786 11.457 107.453 7.79061 111.996 7.79061C116.539 7.79061 120.205 11.457 120.205 16C120.205 20.543 116.539 24.2094 111.996 24.2094ZM120.541 9.37165C119.481 9.37165 118.624 8.51509 118.624 7.45439C118.624 6.3937 119.481 5.53713 120.541 5.53713C121.602 5.53713 122.459 6.3937 122.459 7.45439C122.459 7.70626 122.41 7.95571 122.313 8.18847C122.217 8.42122 122.076 8.63271 121.898 8.81081C121.72 8.9889 121.508 9.13011 121.275 9.22635C121.043 9.32259 120.793 9.37197 120.541 9.37165Z" fill="#333333"/>
<path d="M162.672 15.7217L158.928 13.975C158.602 13.8233 158.333 13.9933 158.333 14.355V17.645C158.333 18.0067 158.602 18.1767 158.928 18.025L162.67 16.2783C162.998 16.125 162.998 15.875 162.672 15.7217ZM160 0C151.163 0 144 7.16333 144 16C144 24.8367 151.163 32 160 32C168.837 32 176 24.8367 176 16C176 7.16333 168.837 0 160 0ZM160 22.5C151.81 22.5 151.667 21.7617 151.667 16C151.667 10.2383 151.81 9.5 160 9.5C168.19 9.5 168.333 10.2383 168.333 16C168.333 21.7617 168.19 22.5 160 22.5Z" fill="#333333"/>
</svg>
